<svg width="2721" height="2265" xmlns="http://www.w3.org/2000/svg" xmlns:xlink="http://www.w3.org/1999/xlink" xml:space="preserve" overflow="hidden"><defs><clipPath id="clip0"><rect x="909" y="96" width="2721" height="2265"/></clipPath></defs><g clip-path="url(#clip0)" transform="translate(-909 -96)"><rect x="1601" y="1160" width="957" height="123" fill="#404040"/><text fill="#FFFFFF" font-family="Calibri,Calibri_MSFontService,sans-serif" font-weight="700" font-size="73" transform="matrix(1 0 0 1 1940.7 1247)">Standard</text><rect x="2610" y="1160" width="959" height="123" fill="#404040"/><text fill="#FFFFFF" font-family="Calibri,Calibri_MSFontService,sans-serif" font-weight="700" font-size="73" transform="matrix(1 0 0 1 2903.89 1247)">Smart Servo</text><rect x="1601" y="1367" width="340" height="250" fill="#595959"/><text fill="#FFFFFF" font-family="Calibri,Calibri_MSFontService,sans-serif" font-weight="700" font-size="73" transform="matrix(1 0 0 1 1647.14 1517)">Position</text><rect x="1997" y="1367" width="448" height="250" fill="#595959"/><text fill="#FFFFFF" font-family="Calibri,Calibri_MSFontService,sans-serif" font-weight="700" font-size="73" transform="matrix(1 0 0 1 2148.27 1473)">Joint</text><text fill="#FFFFFF" font-family="Calibri,Calibri_MSFontService,sans-serif" font-weight="700" font-size="73" transform="matrix(1 0 0 1 2053.16 1561)">impedance</text><rect x="2501" y="1367" width="472" height="250" fill="#595959"/><text fill="#FFFFFF" font-family="Calibri,Calibri_MSFontService,sans-serif" font-weight="700" font-size="73" transform="matrix(1 0 0 1 2593.99 1473)">Cartesian</text><text fill="#FFFFFF" font-family="Calibri,Calibri_MSFontService,sans-serif" font-weight="700" font-size="73" transform="matrix(1 0 0 1 2568.79 1561)">impedance</text><rect x="3028" y="1367" width="541" height="250" fill="#595959"/><text fill="#FFFFFF" font-family="Calibri,Calibri_MSFontService,sans-serif" font-weight="700" font-size="73" transform="matrix(1 0 0 1 3086.02 1473)">Cartesian</text><text fill="#FFFFFF" font-family="Calibri,Calibri_MSFontService,sans-serif" font-weight="700" font-size="73" transform="matrix(1 0 0 1 3388.52 1473)">sine</text><text fill="#FFFFFF" font-family="Calibri,Calibri_MSFontService,sans-serif" font-weight="700" font-size="73" transform="matrix(1 0 0 1 3130.7 1561)">impedance</text><rect x="2610" y="1702" width="453" height="122" fill="#7F7F7F"/><text fill="#FFFFFF" font-family="Calibri,Calibri_MSFontService,sans-serif" font-weight="700" font-size="73" transform="matrix(1 0 0 1 2714.71 1788)">LIN_REL</text><rect x="3116" y="1701" width="453" height="122" fill="#7F7F7F"/><text fill="#FFFFFF" font-family="Calibri,Calibri_MSFontService,sans-serif" font-weight="700" font-size="73" transform="matrix(1 0 0 1 3273.53 1787)">CIRC</text><rect x="1601" y="1701" width="452" height="122" fill="#7F7F7F"/><text fill="#FFFFFF" font-family="Calibri,Calibri_MSFontService,sans-serif" font-weight="700" font-size="73" transform="matrix(1 0 0 1 1769.91 1787)">PTP</text><rect x="2103" y="1702" width="453" height="122" fill="#7F7F7F"/><text fill="#FFFFFF" font-family="Calibri,Calibri_MSFontService,sans-serif" font-weight="700" font-size="73" transform="matrix(1 0 0 1 2280.21 1788)">LIN</text><rect x="913.5" y="804.5" width="2714" height="1283" stroke="#404040" stroke-width="4.58333" stroke-miterlimit="8" fill="none"/><rect x="913.5" y="98.5002" width="2714" height="541" stroke="#404040" stroke-width="4.58333" stroke-miterlimit="8" fill="none"/><rect x="1601" y="460" width="1969" height="123" fill="#262626"/><text fill="#FFFFFF" font-family="Calibri,Calibri_MSFontService,sans-serif" font-weight="700" font-size="73" transform="matrix(1 0 0 1 2476.15 546)">Python</text><rect x="935.5" y="1673.5" width="2666" height="182" stroke="#595959" stroke-width="4.58333" stroke-linecap="square" stroke-miterlimit="8" stroke-dasharray="13.75 4.58333" fill="none"/><text fill="#404040" font-family="Calibri,Calibri_MSFontService,sans-serif" font-weight="400" font-size="73" transform="matrix(1 0 0 1 973.5 1787)">Motion type</text><rect x="935.5" y="1338.5" width="2666" height="308" stroke="#595959" stroke-width="4.58333" stroke-linecap="square" stroke-miterlimit="8" stroke-dasharray="13.75 4.58333" fill="none"/><text fill="#404040" font-family="Calibri,Calibri_MSFontService,sans-serif" font-weight="400" font-size="73" transform="matrix(1 0 0 1 973.5 1514)">Control mode</text><rect x="935.5" y="1131.5" width="2666" height="181" stroke="#595959" stroke-width="4.58333" stroke-linecap="square" stroke-miterlimit="8" stroke-dasharray="13.75 4.58333" fill="none"/><text fill="#404040" font-family="Calibri,Calibri_MSFontService,sans-serif" font-weight="400" font-size="73" transform="matrix(1 0 0 1 973.5 1246)">Control interface</text><text font-family="Calibri,Calibri_MSFontService,sans-serif" font-weight="400" font-size="46" transform="matrix(1 0 0 1 2048.35 882)">KUKA SUNRISE CABINET</text><text font-family="Calibri,Calibri_MSFontService,sans-serif" font-weight="400" font-size="46" transform="matrix(1 0 0 1 2128.56 175)">WORKSTATION</text><rect x="937.5" y="431.5" width="2666" height="181" stroke="#595959" stroke-width="4.58333" stroke-linecap="square" stroke-miterlimit="8" stroke-dasharray="13.75 4.58333" fill="none"/><rect x="937.5" y="222.5" width="2666" height="182" stroke="#595959" stroke-width="4.58333" stroke-linecap="square" stroke-miterlimit="8" stroke-dasharray="13.75 4.58333" fill="none"/><text fill="#404040" font-family="Calibri,Calibri_MSFontService,sans-serif" font-weight="400" font-size="73" transform="matrix(1 0 0 1 973.5 546)">API</text><text fill="#404040" font-family="Calibri,Calibri_MSFontService,sans-serif" font-weight="400" font-size="73" transform="matrix(1 0 0 1 973.5 338)">Control workflow</text><rect x="1601" y="252" width="619" height="122" fill="#0D0D0D"/><text fill="#FFFFFF" font-family="Calibri,Calibri_MSFontService,sans-serif" font-weight="700" font-size="73" transform="matrix(1 0 0 1 1858.54 338)">API</text><rect x="2275" y="252" width="619" height="122" fill="#0D0D0D"/><text fill="#FFFFFF" font-family="Calibri,Calibri_MSFontService,sans-serif" font-weight="700" font-size="73" transform="matrix(1 0 0 1 2521.75 338)">ROS</text><rect x="2950" y="252" width="619" height="122" fill="#0D0D0D"/><text fill="#FFFFFF" font-family="Calibri,Calibri_MSFontService,sans-serif" font-weight="700" font-size="73" transform="matrix(1 0 0 1 3178.03 338)">ROS2</text><path d="M3.55729 6.74441 5.37913 109.78-1.49479 109.901-3.31664 6.86595ZM-18.4321 32.9052-0.000281441-0.0159293 19.5838 32.233C20.5692 33.8557 20.0526 35.97 18.4299 36.9554 16.8072 37.9409 14.6929 37.4243 13.7075 35.8016L-2.81783 8.58947 3.11972 8.48448-12.4333 36.2638C-13.3607 37.9203-15.4554 38.5113-17.112 37.5839-18.7685 36.6564-19.3595 34.5617-18.4321 32.9052ZM20.4946 83.7406 2.06278 116.662-17.5213 84.4128C-18.5067 82.7901-17.9901 80.6758-16.3674 79.6904-14.7447 78.705-12.6304 79.2216-11.645 80.8443L4.88033 108.056-1.05722 108.161 14.4958 80.382C15.4232 78.7255 17.5179 78.1345 19.1745 79.062 20.831 79.9894 21.422 82.0841 20.4946 83.7406Z" fill="#404040" transform="matrix(1 0 0 -1 2270.5 785.146)"/><text fill="#404040" font-family="Calibri,Calibri_MSFontService,sans-serif" font-weight="400" font-size="55" transform="matrix(1 0 0 1 2330.17 743)">socket TCP/IP</text><rect x="911.5" y="2242.5" width="2714" height="116" stroke="#404040" stroke-width="4.58333" stroke-miterlimit="8" fill="none"/><text font-family="Calibri,Calibri_MSFontService,sans-serif" font-weight="400" font-size="46" transform="matrix(1 0 0 1 2126.27 2315)">KUKA LBR IIWA</text><path d="M3.55729 6.74441 5.37913 109.78-1.49479 109.901-3.31664 6.86595ZM-18.4321 32.9052-0.000281441-0.0159293 19.5838 32.233C20.5692 33.8557 20.0526 35.97 18.4299 36.9554 16.8072 37.9409 14.6929 37.4243 13.7075 35.8016L-2.81783 8.58947 3.11972 8.48448-12.4333 36.2638C-13.3607 37.9203-15.4554 38.5113-17.112 37.5839-18.7685 36.6564-19.3595 34.5617-18.4321 32.9052ZM20.4946 83.7406 2.06278 116.662-17.5213 84.4128C-18.5067 82.7901-17.9901 80.6758-16.3674 79.6904-14.7447 78.705-12.6304 79.2216-11.645 80.8443L4.88033 108.056-1.05722 108.161 14.4958 80.382C15.4232 78.7255 17.5179 78.1345 19.1745 79.062 20.831 79.9894 21.422 82.0841 20.4946 83.7406Z" fill="#404040" transform="matrix(1 0 0 -1 2269.5 2224.15)"/><rect x="1599" y="956" width="1969" height="122" fill="#262626"/><text fill="#FFFFFF" font-family="Calibri,Calibri_MSFontService,sans-serif" font-weight="700" font-size="73" transform="matrix(1 0 0 1 2517.57 1042)">Java</text><rect x="935.5" y="927.5" width="2666" height="181" stroke="#595959" stroke-width="4.58333" stroke-linecap="square" stroke-miterlimit="8" stroke-dasharray="13.75 4.58333" fill="none"/><text fill="#404040" font-family="Calibri,Calibri_MSFontService,sans-serif" font-weight="400" font-size="73" transform="matrix(1 0 0 1 971.667 1042)">API</text><rect x="1602" y="1911" width="957" height="122" fill="#A6A6A6"/><text fill="#FFFFFF" font-family="Calibri,Calibri_MSFontService,sans-serif" font-weight="700" font-size="73" transform="matrix(1 0 0 1 1883.69 1997)">Synchronous</text><rect x="2611" y="1911" width="959" height="122" fill="#A6A6A6"/><text fill="#FFFFFF" font-family="Calibri,Calibri_MSFontService,sans-serif" font-weight="700" font-size="73" transform="matrix(1 0 0 1 2874.38 1997)">Asynchronous</text><rect x="936.5" y="1881.5" width="2666" height="182" stroke="#595959" stroke-width="4.58333" stroke-linecap="square" stroke-miterlimit="8" stroke-dasharray="13.75 4.58333" fill="none"/><text fill="#404040" font-family="Calibri,Calibri_MSFontService,sans-serif" font-weight="400" font-size="73" transform="matrix(1 0 0 1 974.646 1997)">Execution type</text></g></svg>